REM MD5 1d324c788659ebdaedb2369029753310
FILE "Arcade Hits - Moon Cresta (Japan).bin" BINARY
  TRACK 01 MODE2/2352
    INDEX 01 00:00:00
  TRACK 02 AUDIO
    INDEX 00 02:50:06
    INDEX 01 02:52:06
  TRACK 03 AUDIO
    INDEX 00 04:46:65
    INDEX 01 04:48:65
  TRACK 04 AUDIO
    INDEX 00 06:37:18
    INDEX 01 06:39:18
REM LEADOUT 09:57:32
